<svg version="1.2" xmlns="http://www.w3.org/2000/svg" viewBox="0 0 484 323" width="2000" height="1335">
	<title>logo-svg</title>
	<style>
		.s0 { fill: #db1f29 } 
		.s1 { fill: #ffffff } 
	</style>
	<path id="Layer" class="s0" d="m113.4 133.3h-40.9c-9.1 0-16.5 7.4-16.5 16.5v40.9h40.8c9.2 0 16.6-7.4 16.6-16.5v-33.8z"/>
	<g id="Layer">
		<path id="Layer" class="s1" d="m69.8 181.1c-4.9 0-4.9-4.9-4.9-4.9v-24.5c0-4.8 4.9-4.8 4.9-4.8h9.8c4.9 0 9.7 4.8 9.7 4.8 0 0 4.9 0 0 0 0-14.2 4.5 5.3 9.8 0 3.5-3.4 4.9 17.2 4.9 17.2l-4.9-2.5c0 0 0-4.9-7.3-9.8-9.1-6-19.6-2-19.6 7.4 0 19.2 31.8 12.2 31.8 12.2 0 0 0 4.9-4.9 4.9z"/>
		<path id="Layer" class="s1" d="m94.2 146.9c0-1.4 1.1-7.4 2.5-7.4 1.3 0 2.4 6 2.4 7.4 0 1.3-1.1 2.4-2.4 2.4-1.4 0-2.5-1.1-2.5-2.4z"/>
	</g>
	<path id="Layer" fill-rule="evenodd" class="s1" d="m149.3 172.8h-5.5l-12.3-18.4v35.3h-9.9v-55.7h7.9l17.1 25.2 17.1-25.2h7.8v55.7h-9.8v-35.3zm56.4 17.9c-7.7 0-14.9-3-20.3-8.5-5.3-5.6-8.3-12.8-8.3-20.4 0-7.5 3-14.7 8.3-20.3 5.4-5.4 12.7-8.5 20.3-8.5 7.6 0 14.9 3 20.3 8.5 5.4 5.6 8.4 12.8 8.4 20.3 0 7.6-3 14.8-8.4 20.4-5.4 5.5-12.6 8.5-20.3 8.5zm0-47.7c-4.9 0-9.6 2-13.1 5.6-3.5 3.5-5.5 8.2-5.5 13.2 0 5.1 2 9.8 5.5 13.3 3.5 3.6 8.2 5.6 13.1 5.6 4.9 0 9.8-2.1 13.2-5.6 3.5-3.5 5.5-8.2 5.5-13.3 0-5-2-9.7-5.5-13.2-3.4-3.6-8.3-5.6-13.2-5.6zm30.5 46.7v-9.4h1c16.3 0 19.6-5.7 19.6-14.9v-22.2h-20.6v-9.1h30.4v31.3c0 17-8.8 24.3-29.3 24.3 0 0-1.1 0-1.1 0zm73 0l-5.1-13.6h-20.3l-5.2 13.6h-10.6l22.3-56.4h7.1l22.4 56.4zm-8.8-22.9l-6.5-17.1-6.5 17.1zm32.9 22.9h-9.9v-55.7h7.6l24.5 35.4v-35.4h9.8v55.7h-7.8l-24.2-35.1zm65.9 1c-7.8 0-15-3-20.3-8.5-5.4-5.5-8.3-12.8-8.3-20.3 0-7.6 2.9-14.8 8.3-20.3 5.3-5.5 12.7-8.6 20.3-8.6 7.6 0 14.8 3.1 20.3 8.5q2.9 3.1 4.9 6.7l0.9 1.6h-11.8l-0.5-0.6q-0.3-0.3-0.6-0.6c-3.4-3.5-8.3-5.6-13.2-5.6-4.9 0-9.6 2-13.1 5.6-3.6 3.5-5.5 8.2-5.5 13.3 0 5 1.9 9.7 5.5 13.2 3.5 3.6 8.2 5.6 13.1 5.6 4.9 0 9.8-2 13.2-5.6 2.4-2.3 4.1-5.3 4.9-8.6h-21v-10h31.1l0.1 0.9q0.4 2.2 0.4 4.5c0 7.5-3 14.8-8.4 20.3-5.4 5.5-12.6 8.5-20.3 8.5z"/>
</svg>